<mxfile host="app.diagrams.net" modified="2024-07-02T15:22:38.144Z" agent="Mozilla/5.0 (Windows NT 10.0; Win64; x64) AppleWebKit/537.36 (KHTML, like Gecko) Chrome/126.0.0.0 Safari/537.36" version="24.6.4" etag="VCAq5Cc1WCls9RJd8IDW" type="github">
  <diagram name="Page-1" id="DioGxJNtAuu3_M9x7N1W">
    <mxGraphModel>
      <root>
        <mxCell id="0" />
        <mxCell id="1" parent="0" />
      </root>
    </mxGraphModel>
  </diagram>
</mxfile>
